<svg xmlns="http://www.w3.org/2000/svg" version="1.1" width="650px" height="390px"><g transform="scale(0.8)"><g><path style="stroke:brown;stroke-width:12.5;" d="M 85 36.25 v 375"></path><g transform="translate(35,42.5)"><path style="fill:white;stroke:chocolate;stroke-width:2;" d="M 25 0 h 50 l 25,25 h -100 z"></path><path style="fill:white;stroke:brown;stroke-width:2;" d="M 0 25 h 100 l -25,25 h -50 z"></path></g><g transform="translate(35,207.5)"><path style="fill:white;stroke:chocolate;stroke-width:2;" d="M 25 0 h 50 l 25,25 h -100 z"></path><path style="fill:white;stroke:brown;stroke-width:2;" d="M 0 25 h 100 l -25,25 h -50 z"></path></g><g transform="translate(35,257.5)"><path style="fill:white;stroke:chocolate;stroke-width:2;" d="M 25 0 h 50 l 25,25 h -100 z"></path><path style="fill:white;stroke:brown;stroke-width:2;" d="M 0 25 h 100 l -25,25 h -50 z"></path></g><g transform="translate(35,307.5)"><path style="fill:white;stroke:chocolate;stroke-width:2;" d="M 25 0 h 50 l 25,25 h -100 z"></path><path style="fill:white;stroke:brown;stroke-width:2;" d="M 0 25 h 100 l -25,25 h -50 z"></path></g><g transform="translate(35,357.5)"><path style="fill:white;stroke:chocolate;stroke-width:2;" d="M 25 0 h 50 l 25,25 h -100 z"></path><path style="fill:white;stroke:brown;stroke-width:2;" d="M 0 25 h 100 l -25,25 h -50 z"></path></g></g><g><path style="stroke:brown;stroke-width:12.5;" d="M 185 36.25 v 375"></path><g transform="translate(135,42.5)"><path style="fill:white;stroke:chocolate;stroke-width:2;" d="M 25 0 h 50 l 25,25 h -100 z"></path><path style="fill:white;stroke:brown;stroke-width:2;" d="M 0 25 h 100 l -25,25 h -50 z"></path></g><g transform="translate(135,157.5)"><path style="fill:#dfac89;stroke:chocolate;stroke-width:2;" d="M 25 0 h 50 l 25,25 h -100 z"></path><path style="fill:#d6966a;stroke:brown;stroke-width:2;" d="M 0 25 h 100 l -25,25 h -50 z"></path></g><g transform="translate(135,207.5)"><path style="fill:#dfac89;stroke:chocolate;stroke-width:2;" d="M 25 0 h 50 l 25,25 h -100 z"></path><path style="fill:#d6966a;stroke:brown;stroke-width:2;" d="M 0 25 h 100 l -25,25 h -50 z"></path></g><g transform="translate(135,307.5)"><path style="fill:white;stroke:chocolate;stroke-width:2;" d="M 25 0 h 50 l 25,25 h -100 z"></path><path style="fill:white;stroke:brown;stroke-width:2;" d="M 0 25 h 100 l -25,25 h -50 z"></path></g><g transform="translate(135,357.5)"><path style="fill:white;stroke:chocolate;stroke-width:2;" d="M 25 0 h 50 l 25,25 h -100 z"></path><path style="fill:white;stroke:brown;stroke-width:2;" d="M 0 25 h 100 l -25,25 h -50 z"></path></g></g><path style="fill:none;stroke:black;stroke-width:15;stroke-linecap:butt;stroke-linejoin:miter;" d="M 20 150 h 230"></path><path style="fill:none;stroke:black;stroke-width:20;" d="M 20 30 h 235 v 390 h -235 v -390 z"></path></g><g transform="scale(0.8)"><g><path style="stroke:brown;stroke-width:12.5;" d="M 355 36.25 v 375"></path><g transform="translate(305,42.5)"><path style="fill:white;stroke:chocolate;stroke-width:2;" d="M 25 0 h 50 l 25,25 h -100 z"></path><path style="fill:white;stroke:brown;stroke-width:2;" d="M 0 25 h 100 l -25,25 h -50 z"></path></g><g transform="translate(305,207.5)"><path style="fill:white;stroke:chocolate;stroke-width:2;" d="M 25 0 h 50 l 25,25 h -100 z"></path><path style="fill:white;stroke:brown;stroke-width:2;" d="M 0 25 h 100 l -25,25 h -50 z"></path></g><g transform="translate(305,257.5)"><path style="fill:white;stroke:chocolate;stroke-width:2;" d="M 25 0 h 50 l 25,25 h -100 z"></path><path style="fill:white;stroke:brown;stroke-width:2;" d="M 0 25 h 100 l -25,25 h -50 z"></path></g><g transform="translate(305,307.5)"><path style="fill:white;stroke:chocolate;stroke-width:2;" d="M 25 0 h 50 l 25,25 h -100 z"></path><path style="fill:white;stroke:brown;stroke-width:2;" d="M 0 25 h 100 l -25,25 h -50 z"></path></g><g transform="translate(305,357.5)"><path style="fill:white;stroke:chocolate;stroke-width:2;" d="M 25 0 h 50 l 25,25 h -100 z"></path><path style="fill:white;stroke:brown;stroke-width:2;" d="M 0 25 h 100 l -25,25 h -50 z"></path></g></g><g><path style="stroke:brown;stroke-width:12.5;" d="M 455 36.25 v 375"></path><g transform="translate(405,92.5)"><path style="fill:#00FF0099;stroke:chocolate;stroke-width:2;" d="M 25 0 h 50 l 25,25 h -100 z"></path><path style="fill:green;stroke:brown;stroke-width:2;" d="M 0 25 h 100 l -25,25 h -50 z"></path></g><g transform="translate(405,157.5)"><path style="fill:#dfac89;stroke:chocolate;stroke-width:2;" d="M 25 0 h 50 l 25,25 h -100 z"></path><path style="fill:#d6966a;stroke:brown;stroke-width:2;" d="M 0 25 h 100 l -25,25 h -50 z"></path></g><g transform="translate(405,257.5)"><path style="fill:#FF000099;stroke:chocolate;stroke-width:2;" d="M 25 0 h 50 l 25,25 h -100 z"></path><path style="fill:darkred;stroke:brown;stroke-width:2;" d="M 0 25 h 100 l -25,25 h -50 z"></path></g><g transform="translate(405,307.5)"><path style="fill:white;stroke:chocolate;stroke-width:2;" d="M 25 0 h 50 l 25,25 h -100 z"></path><path style="fill:white;stroke:brown;stroke-width:2;" d="M 0 25 h 100 l -25,25 h -50 z"></path></g><g transform="translate(405,357.5)"><path style="fill:white;stroke:chocolate;stroke-width:2;" d="M 25 0 h 50 l 25,25 h -100 z"></path><path style="fill:white;stroke:brown;stroke-width:2;" d="M 0 25 h 100 l -25,25 h -50 z"></path></g></g><path style="fill:none;stroke:black;stroke-width:15;stroke-linecap:butt;stroke-linejoin:miter;" d="M 290 150 h 230"></path><path style="fill:none;stroke:black;stroke-width:20;" d="M 290 30 h 235 v 390 h -235 v -390 z"></path></g><g transform="scale(0.8)"><g><path style="stroke:brown;stroke-width:12.5;" d="M 625 36.25 v 375"></path><g transform="translate(575,42.5)"><path style="fill:#dfac89;stroke:chocolate;stroke-width:2;" d="M 25 0 h 50 l 25,25 h -100 z"></path><path style="fill:#d6966a;stroke:brown;stroke-width:2;" d="M 0 25 h 100 l -25,25 h -50 z"></path></g><g transform="translate(575,207.5)"><path style="fill:#dfac89;stroke:chocolate;stroke-width:2;" d="M 25 0 h 50 l 25,25 h -100 z"></path><path style="fill:#d6966a;stroke:brown;stroke-width:2;" d="M 0 25 h 100 l -25,25 h -50 z"></path></g><g transform="translate(575,257.5)"><path style="fill:#dfac89;stroke:chocolate;stroke-width:2;" d="M 25 0 h 50 l 25,25 h -100 z"></path><path style="fill:#d6966a;stroke:brown;stroke-width:2;" d="M 0 25 h 100 l -25,25 h -50 z"></path></g><g transform="translate(575,307.5)"><path style="fill:#dfac89;stroke:chocolate;stroke-width:2;" d="M 25 0 h 50 l 25,25 h -100 z"></path><path style="fill:#d6966a;stroke:brown;stroke-width:2;" d="M 0 25 h 100 l -25,25 h -50 z"></path></g><g transform="translate(575,357.5)"><path style="fill:#dfac89;stroke:chocolate;stroke-width:2;" d="M 25 0 h 50 l 25,25 h -100 z"></path><path style="fill:#d6966a;stroke:brown;stroke-width:2;" d="M 0 25 h 100 l -25,25 h -50 z"></path></g></g><g><path style="stroke:brown;stroke-width:12.5;" d="M 725 36.25 v 375"></path><g transform="translate(675,92.5)"><path style="fill:#dfac89;stroke:chocolate;stroke-width:2;" d="M 25 0 h 50 l 25,25 h -100 z"></path><path style="fill:#d6966a;stroke:brown;stroke-width:2;" d="M 0 25 h 100 l -25,25 h -50 z"></path></g><g transform="translate(675,157.5)"><path style="fill:#dfac89;stroke:chocolate;stroke-width:2;" d="M 25 0 h 50 l 25,25 h -100 z"></path><path style="fill:#d6966a;stroke:brown;stroke-width:2;" d="M 0 25 h 100 l -25,25 h -50 z"></path></g><g transform="translate(675,257.5)"><path style="fill:#dfac89;stroke:chocolate;stroke-width:2;" d="M 25 0 h 50 l 25,25 h -100 z"></path><path style="fill:#d6966a;stroke:brown;stroke-width:2;" d="M 0 25 h 100 l -25,25 h -50 z"></path></g><g transform="translate(675,307.5)"><path style="fill:#dfac89;stroke:chocolate;stroke-width:2;" d="M 25 0 h 50 l 25,25 h -100 z"></path><path style="fill:#d6966a;stroke:brown;stroke-width:2;" d="M 0 25 h 100 l -25,25 h -50 z"></path></g><g transform="translate(675,357.5)"><path style="fill:#dfac89;stroke:chocolate;stroke-width:2;" d="M 25 0 h 50 l 25,25 h -100 z"></path><path style="fill:#d6966a;stroke:brown;stroke-width:2;" d="M 0 25 h 100 l -25,25 h -50 z"></path></g></g><path style="fill:none;stroke:black;stroke-width:15;stroke-linecap:butt;stroke-linejoin:miter;" d="M 560 150 h 230"></path><path style="fill:none;stroke:black;stroke-width:20;" d="M 560 30 h 235 v 390 h -235 v -390 z"></path></g><text x="110" y="370" text-anchor="middle" font-size="20">2 + 4 = </text><text x="325" y="370" text-anchor="middle" font-size="20">2 - (1 × 1) + (5 × 1)</text><text x="540" y="370" text-anchor="middle" font-size="20">= 6</text></svg>
