<?xml version="1.0" encoding="UTF-8" standalone="no"?>
<!-- Generator: Adobe Illustrator 19.2.0, SVG Export Plug-In . SVG Version: 6.00 Build 0)  -->

<svg
   version="1.1"
   id="Layer_1"
   x="0px"
   y="0px"
   viewBox="0 0 265.39871 265.3988"
   xml:space="preserve"
   sodipodi:docname="something-like-a-bix.svg"
   inkscape:version="1.1.1 (3bf5ae0d25, 2021-09-20)"
   width="265.39871"
   height="265.3988"
   xmlns:inkscape="http://www.inkscape.org/namespaces/inkscape"
   xmlns:sodipodi="http://sodipodi.sourceforge.net/DTD/sodipodi-0.dtd"
   xmlns="http://www.w3.org/2000/svg"
   xmlns:svg="http://www.w3.org/2000/svg"><defs
   id="defs912">
		<linearGradient
   id="SVGID_1_"
   gradientUnits="userSpaceOnUse"
   x1="0"
   y1="0"
   x2="0.70709997"
   y2="0.70709997">
			<stop
   offset="0"
   style="stop-color:#E6E6EA"
   id="stop856" />
			<stop
   offset="0.1719"
   style="stop-color:#E2E2E6"
   id="stop858" />
			<stop
   offset="0.3482"
   style="stop-color:#D7D6DA"
   id="stop860" />
			<stop
   offset="0.5264"
   style="stop-color:#C4C2C5"
   id="stop862" />
			<stop
   offset="0.7061"
   style="stop-color:#A9A7A8"
   id="stop864" />
			<stop
   offset="0.8852"
   style="stop-color:#878484"
   id="stop866" />
			<stop
   offset="1"
   style="stop-color:#6D6968"
   id="stop868" />
		</linearGradient>
		
		
		
		
		
		
		
	
			
			
		
				
				
				
				
			
	
	

					
				</defs><sodipodi:namedview
   id="namedview910"
   pagecolor="#ffffff"
   bordercolor="#666666"
   borderopacity="1.0"
   inkscape:pageshadow="2"
   inkscape:pageopacity="0.0"
   inkscape:pagecheckerboard="0"
   showgrid="false"
   inkscape:zoom="4"
   inkscape:cx="130"
   inkscape:cy="90.75"
   inkscape:window-width="2160"
   inkscape:window-height="3814"
   inkscape:window-x="1920"
   inkscape:window-y="26"
   inkscape:window-maximized="1"
   inkscape:current-layer="layer1" />
<style
   type="text/css"
   id="style854">
	.Drop_x0020_Shadow{fill:none;}
	.Round_x0020_Corners_x0020_2_x0020_pt{fill:#FFFFFF;stroke:#1B1B1F;stroke-miterlimit:10;}
	.Live_x0020_Reflect_x0020_X{fill:none;}
	.Bevel_x0020_Soft{fill:url(#SVGID_1_);}
	.Dusk{fill:#FFFFFF;}
	.Foliage_GS{fill:#FFDC00;}
	.Pompadour_GS{fill-rule:evenodd;clip-rule:evenodd;fill:#58AEE2;}
	.st0{fill:none;}
	.st1{fill:#FFFFFF;}
	.st2{fill:#283037;}
	.st3{fill:#4DA825;}
</style>


<g
   inkscape:groupmode="layer"
   id="layer1"
   inkscape:label="bash"
   transform="translate(643.48596,-968.1702)"
   style="display:inline"><path
     id="use4867"
     style="color:#000000;clip-rule:nonzero;display:inline;overflow:visible;visibility:visible;opacity:0.5;isolation:auto;mix-blend-mode:normal;color-interpolation:sRGB;color-interpolation-filters:linearRGB;solid-color:#000000;solid-opacity:1;fill:#7ebae4;fill-opacity:1;fill-rule:evenodd;stroke:none;stroke-width:2.13405;stroke-linecap:butt;stroke-linejoin:round;stroke-miterlimit:4;stroke-dasharray:none;stroke-dashoffset:0;stroke-opacity:1;color-rendering:auto;image-rendering:auto;shape-rendering:auto;text-rendering:auto;enable-background:accumulate"
     d="m -523.83031,983.80149 -34.01492,19.98571 98.50604,57.1975 32.32219,-19.9765 c 0.45666,-0.2688 0.89503,-0.4473 1.34229,-0.6684 l -20.94511,-12.1496 0.0515,-16.1556 -34.69885,-20.59117 -0.0449,16.83497 z"
     sodipodi:nodetypes="cccccccccc" /><path
     id="use4863"
     style="color:#000000;clip-rule:nonzero;display:inline;overflow:visible;visibility:visible;opacity:0.5;isolation:auto;mix-blend-mode:normal;color-interpolation:sRGB;color-interpolation-filters:linearRGB;solid-color:#000000;solid-opacity:1;fill:#7ebae4;fill-opacity:1;fill-rule:evenodd;stroke:none;stroke-width:2.13405;stroke-linecap:butt;stroke-linejoin:round;stroke-miterlimit:4;stroke-dasharray:none;stroke-dashoffset:0;stroke-opacity:1;color-rendering:auto;image-rendering:auto;shape-rendering:auto;text-rendering:auto;enable-background:accumulate"
     d="m -526.08411,1098.9182 -34.66707,20.1353 -0.0964,47.4424 -24.82484,14.0903 c 19.84236,11.7974 39.76744,23.4559 59.58286,35.2985 z"
     sodipodi:nodetypes="cccccc" /><path
     id="use4875"
     style="color:#000000;clip-rule:nonzero;display:inline;overflow:visible;visibility:visible;opacity:0.5;isolation:auto;mix-blend-mode:normal;color-interpolation:sRGB;color-interpolation-filters:linearRGB;solid-color:#000000;solid-opacity:1;fill:#5277c3;fill-opacity:1;fill-rule:evenodd;stroke:none;stroke-width:2.13405;stroke-linecap:butt;stroke-linejoin:round;stroke-miterlimit:4;stroke-dasharray:none;stroke-dashoffset:0;stroke-opacity:1;color-rendering:auto;image-rendering:auto;shape-rendering:auto;text-rendering:auto;enable-background:accumulate"
     d="m -602.11523,1030.0801 c -0.84874,0.5036 -1.6981,1.0062 -2.54688,1.5097 -6.37211,3.3408 -10.69892,10.1465 -11.20898,17.2989 -0.0408,0.6216 -0.0434,1.0194 -0.0645,1.6972 -0.004,3.933 0.003,7.8659 0,11.7989 l 37.45508,21.7578 -37.45508,21.5 c 0.002,13.385 -0.0106,26.7694 0,40.1543 l 147.95117,-85.4258 -34.77148,-19.9551 -41.13476,23.6387 z" /><rect
     x="-643.48596"
     y="968.17023"
     class="st0"
     width="265.39871"
     height="265.39871"
     id="rect871-7-0"
     style="fill:none;stroke-width:0.518358" /><path
     class="st2"
     d="m -410.84742,1022.3904 -83.76645,-49.7623 c -4.97622,-2.9546 -10.57448,-4.4579 -16.17273,-4.4579 -5.59825,0 -11.14467,1.5033 -16.17273,4.4579 l -83.76647,49.7623 c -10.00429,5.9092 -16.17274,16.8984 -16.17274,28.7687 v 99.4727 c 0,11.8704 6.16845,22.8596 16.17274,28.7688 l 83.76647,49.7105 c 4.97622,2.9545 10.57448,4.4579 16.17273,4.4579 5.59825,0 11.14467,-1.5034 16.17273,-4.4579 l 83.76645,-49.7105 c 10.00428,-5.961 16.17273,-16.8984 16.17273,-28.7688 v -99.4727 c 0,-11.8703 -6.16845,-22.8595 -16.17273,-28.7687 z m -113.15728,201.6408 -83.76647,-49.7104 c -8.19004,-4.8726 -13.26994,-13.9438 -13.26994,-23.689 v -99.4726 c 0,-9.7451 5.0799,-18.8164 13.26994,-23.6889 l 83.76647,-49.7105 c 4.04318,-2.3844 8.60472,-3.6285 13.2181,-3.6285 4.61337,0 9.22675,1.2441 13.2181,3.6285 l 83.76645,49.7105 c 6.89415,4.095 11.55935,11.1964 12.85526,19.1791 -2.79913,-5.9092 -9.01943,-7.568 -16.32825,-3.2656 l -79.25675,48.9847 c -9.90061,5.7538 -17.15761,12.2851 -17.15761,24.1555 v 97.6583 c 0,7.1534 2.85096,11.7669 7.30883,13.1146 -1.4514,0.259 -2.9028,0.4146 -4.40603,0.4146 -4.61338,-0.053 -9.22675,-1.2959 -13.2181,-3.6803 z"
     id="path877-7-9"
     style="fill:#283037;stroke-width:0.518358"
     sodipodi:nodetypes="ccsccssccsccsscccssccscccccssccc" /><g
     id="g883-2-7"
     transform="matrix(0.51835686,0,0,0.51835686,-623.76229,954.17919)"><path
       class="st3"
       d="m 406.8,371.8 -40.3,24.1 c -1.1,0.6 -1.9,1.3 -1.9,2.6 V 409 c 0,1.3 0.9,1.8 1.9,1.2 l 40.9,-24.8 c 1.1,-0.6 1.2,-1.8 1.2,-3.1 V 373 c 0.1,-1.3 -0.8,-1.8 -1.8,-1.2 z"
       id="path881-3-5" /></g><g
     id="g893">
		</g><g
     id="g895">
		</g><g
     id="g897">
		</g><g
     id="g899">
		</g><g
     id="g901">
		</g><g
     id="g903">
		</g><path
     sodipodi:nodetypes="ccccccccc"
     inkscape:connector-curvature="0"
     id="path4873-2-9-6-7"
     d="m -477.21834,1120.8912 35.53344,47.8028 -16.07485,9.8309 -9.48751,-12.8783 -9.25843,24.0427 -16.1857,9.7146 17.23325,-44.7095 -9.66343,-13.0849 z"
     style="color:#000000;clip-rule:nonzero;display:inline;overflow:visible;visibility:visible;isolation:auto;mix-blend-mode:normal;color-interpolation:sRGB;color-interpolation-filters:linearRGB;solid-color:#000000;solid-opacity:1;fill:#ffffff;fill-opacity:1;fill-rule:evenodd;stroke:#b7b7b7;stroke-width:2.367;stroke-linecap:butt;stroke-linejoin:round;stroke-miterlimit:4;stroke-dasharray:none;stroke-dashoffset:0;stroke-opacity:1;color-rendering:auto;image-rendering:auto;shape-rendering:auto;text-rendering:auto;enable-background:accumulate" /></g></svg>
